<?xml version="1.0" encoding="UTF-8"?>
<!DOCTYPE svg PUBLIC "-//W3C//DTD SVG 1.1//EN" "http://www.w3.org/Graphics/SVG/1.1/DTD/svg11.dtd">
<!-- Creator: CorelDRAW X7 -->
<svg xmlns="http://www.w3.org/2000/svg" xml:space="preserve" width="58.72mm" height="10.8733mm" version="1.1" style="shape-rendering:geometricPrecision; text-rendering:geometricPrecision; image-rendering:optimizeQuality; fill-rule:evenodd; clip-rule:evenodd"
viewBox="0 0 1187 220"
 xmlns:xlink="http://www.w3.org/1999/xlink">
 <defs>
  <style type="text/css">
   <![CDATA[
    .fil0 {fill:#F58D33}
    .fil1 {fill:#FDFDFD}
   ]]>
  </style>
 </defs>
 <g id="Capa_x0020_1">
  <metadata id="CorelCorpID_0Corel-Layer"/>
  <g id="_506836984">
   <path class="fil0" d="M0 106c0,36 7,60 30,83 22,22 45,31 79,31 46,0 86,-34 86,-86 0,-58 -68,-96 -114,-66 -27,18 -34,57 -10,81 29,30 73,14 73,-15 0,-10 -6,-16 -16,-16 -22,0 1,19 -24,19 -29,0 -29,-53 14,-53 24,0 50,23 50,48 0,19 -2,31 -19,45 -29,27 -92,20 -114,-28 -11,-23 -10,-51 1,-73 36,-71 145,-55 171,10 8,18 5,81 5,108 0,20 1,26 17,26 6,0 10,-8 10,-14l0 -96c0,-105 -169,-156 -228,-47 -5,10 -11,29 -11,43z"/>
   <path class="fil1" d="M667 149l0 14c0,23 27,50 50,50 59,0 35,-22 32,-22 -11,0 -12,3 -25,3 -49,0 -45,-77 -4,-77 18,0 36,3 41,26 -27,0 -60,-6 -60,12 0,5 6,8 12,8l58 0c21,0 15,-32 -6,-52 -33,-32 -98,-9 -98,38z"/>
   <path class="fil1" d="M270 149l0 14c0,23 27,50 50,50l14 0c33,0 26,-22 18,-22 -10,0 -34,11 -51,-8 -23,-26 -5,-66 22,-66 20,0 39,5 43,29 2,14 0,46 0,62 5,3 3,5 10,5 6,0 11,-2 11,-7 0,-32 4,-59 -7,-80 -25,-51 -110,-32 -110,23z"/>
   <path class="fil1" d="M1071 151l0 9c0,27 26,53 53,53 54,0 32,-22 29,-22 -7,0 -56,17 -61,-34 -2,-21 15,-40 30,-40 14,0 25,-1 36,11 21,23 -3,85 17,85 4,0 12,1 12,-7l0 -62c0,-34 -57,-69 -98,-33 -4,4 -10,12 -13,17 -3,5 -5,15 -5,23z"/>
   <path class="fil1" d="M903 7l0 153c0,49 67,67 67,43 0,-15 -46,0 -46,-48l0 -38c17,0 46,4 46,-11 0,-14 -25,-10 -46,-10l0 -87c0,-5 -5,-8 -9,-9l-6 0c-3,1 -6,3 -6,7z"/>
   <path class="fil1" d="M419 149c0,18 -2,46 2,62 14,4 10,2 19,-3 0,-31 -7,-64 11,-81 20,-20 59,-11 63,19 3,14 1,46 1,62 5,3 3,5 10,5 5,0 10,-2 10,-7l0 -60c0,-23 -24,-50 -60,-50 -28,0 -56,25 -56,53z"/>
   <path class="fil1" d="M563 155c0,18 6,30 15,40 19,20 32,18 58,18 7,0 10,-7 5,-17 -23,-6 -56,6 -56,-47 0,-14 11,-25 21,-30 17,-8 28,8 39,-13 -6,-11 -8,-10 -22,-10 -34,0 -60,25 -60,59z"/>
   <path class="fil1" d="M777 213c34,0 61,0 61,-55 0,-17 -3,-33 9,-39 14,-7 37,6 37,-14 0,-14 -45,-12 -59,7 -23,29 9,77 -28,82 -9,1 -20,-2 -25,2 -7,5 -3,17 5,17z"/>
   <path class="fil1" d="M992 149c0,18 -2,46 2,62 14,4 10,2 19,-3 0,-22 -4,-53 3,-69 12,-33 43,-12 43,-34 0,-21 -67,-3 -67,44z"/>
  </g>
 </g>
</svg>
