<?xml version="1.0" encoding="UTF-8"?>
<!DOCTYPE svg PUBLIC "-//W3C//DTD SVG 1.1//EN" "http://www.w3.org/Graphics/SVG/1.1/DTD/svg11.dtd">
<!-- Creator: CorelDRAW X7 -->
<svg xmlns="http://www.w3.org/2000/svg" xml:space="preserve" width="54.3791mm" height="40.3186mm" version="1.1" style="shape-rendering:geometricPrecision; text-rendering:geometricPrecision; image-rendering:optimizeQuality; fill-rule:evenodd; clip-rule:evenodd"
viewBox="0 0 839 622"
 xmlns:xlink="http://www.w3.org/1999/xlink">
 <defs>
  <style type="text/css">
   <![CDATA[
    .str1 {stroke:#F68E34;stroke-width:46.287;stroke-linecap:round}
    .str0 {stroke:#F68E34;stroke-width:54.0015;stroke-linecap:round}
    .fil1 {fill:none}
    .fil0 {fill:#FEFEFE;fill-rule:nonzero}
   ]]>
  </style>
 </defs>
 <g id="Capa_x0020_1">
  <metadata id="CorelCorpID_0Corel-Layer"/>
  <g id="_477032936">
   <path class="fil0" d="M107 614c0,2 -1,4 -3,6 -2,1 -4,2 -6,2 -3,0 -5,-1 -7,-2 -2,-2 -3,-4 -3,-6l0 -46c0,-10 -3,-18 -10,-25 -6,-6 -14,-9 -23,-9l-3 0c-9,0 -17,3 -23,9 -7,7 -10,15 -10,25l0 3c0,10 3,18 10,25 6,6 14,9 23,9 6,0 12,-1 16,-2 2,-1 4,-1 7,-1 2,1 4,3 5,5 1,2 1,4 0,6 -1,2 -2,4 -4,5 -7,3 -15,4 -24,4 -15,0 -27,-5 -37,-15 -10,-10 -15,-22 -15,-36l0 -3c0,-14 5,-26 15,-36 10,-10 22,-15 37,-15l3 0c15,0 27,5 37,15 10,10 15,22 15,36l0 46zm136 0c0,2 -1,4 -3,6 -2,1 -4,2 -6,2 -3,0 -5,-1 -7,-2 -2,-2 -3,-4 -3,-6l0 -46c0,-10 -3,-18 -10,-25 -6,-6 -14,-9 -23,-9l-3 0c-9,0 -17,3 -23,9 -7,7 -10,15 -10,25l0 46c0,2 -1,4 -3,6 -2,1 -4,2 -7,2 -2,0 -4,-1 -6,-2 -2,-2 -3,-4 -3,-6l0 -46c0,-14 5,-26 15,-36 10,-10 22,-15 37,-15l3 0c15,0 27,5 37,15 10,10 15,22 15,36l0 46zm89 -97c3,0 5,1 7,2 2,2 3,4 3,6 0,3 -1,5 -3,6 -2,2 -4,3 -7,3l-12 0c-9,0 -17,3 -23,9 -7,7 -10,15 -10,25l0 3c0,10 3,18 10,25 6,6 14,9 23,9l12 0c3,0 5,1 7,3 2,1 3,3 3,6 0,2 -1,4 -3,6 -2,1 -4,2 -7,2l-12 0c-15,0 -27,-5 -37,-15 -10,-10 -15,-22 -15,-36l0 -3c0,-14 5,-26 15,-36 10,-10 22,-15 37,-15l12 0zm99 86c2,-1 4,-1 7,-1 2,1 4,3 5,5 1,2 1,4 0,6 -1,2 -2,4 -5,5 -6,3 -14,4 -24,4 -14,0 -26,-5 -36,-15 -10,-10 -15,-22 -15,-36l0 -3c0,-14 5,-26 15,-36 10,-10 22,-15 36,-15l4 0c14,0 27,5 37,15 10,10 15,22 15,36 0,2 -1,4 -3,6 -2,1 -4,2 -7,2l-56 0c-3,0 -5,-1 -7,-2 -2,-2 -3,-4 -3,-6 0,-3 1,-5 3,-6 2,-2 4,-3 7,-3l46 0c-2,-6 -4,-11 -9,-16 -6,-6 -14,-9 -23,-9l-4 0c-8,0 -16,3 -22,9 -7,7 -10,15 -10,25l0 3c0,10 3,18 10,25 6,6 14,9 22,9 7,0 13,-1 17,-2zm121 -86c3,0 5,1 7,2 2,2 3,4 3,6 0,3 -1,5 -3,6 -2,2 -4,3 -7,3l-10 0c-9,0 -15,1 -18,5 -4,3 -6,10 -6,19l0 23c0,14 -3,24 -10,31 -8,7 -18,10 -33,10l-10 0c-2,0 -4,-1 -6,-2 -2,-2 -3,-4 -3,-6 0,-3 1,-5 3,-6 2,-2 4,-3 6,-3l10 0c9,0 16,-1 19,-5 4,-3 6,-10 6,-19l0 -23c0,-14 3,-24 10,-31 7,-7 18,-10 32,-10l10 0zm45 0l33 0c3,0 5,1 7,2 1,2 2,4 2,6 0,3 -1,5 -2,6 -2,2 -4,3 -7,3l-33 0 0 34c0,11 3,20 9,27 6,7 14,10 24,10 3,0 5,1 7,3 1,1 2,3 2,6 0,2 -1,4 -2,6 -2,1 -4,2 -7,2 -16,0 -29,-6 -38,-17 -9,-10 -14,-22 -14,-37l0 -131c0,-2 1,-4 3,-6 2,-2 4,-3 7,-3 2,0 4,1 6,3 2,2 3,4 3,6l0 80zm115 0c2,0 4,1 6,2 2,2 3,4 3,6 0,3 -1,5 -3,6 -2,2 -4,3 -6,3 -9,0 -17,3 -23,9 -7,7 -10,15 -10,25l0 46c0,2 -1,4 -3,6 -2,1 -4,2 -7,2 -2,0 -4,-1 -6,-2 -2,-2 -3,-4 -3,-6l0 -46c0,-14 5,-26 15,-36 10,-10 22,-15 37,-15zm127 97c0,2 -1,4 -3,6 -1,1 -4,2 -6,2 -3,0 -5,-1 -7,-2 -2,-2 -3,-4 -3,-6l0 -46c0,-10 -3,-18 -10,-25 -6,-6 -14,-9 -23,-9l-3 0c-9,0 -17,3 -23,9 -7,7 -10,15 -10,25l0 3c0,10 3,18 10,25 6,6 14,9 23,9 7,0 12,-1 16,-2 2,-1 5,-1 7,-1 2,1 4,3 5,5 1,2 2,4 1,6 -1,2 -3,4 -5,5 -7,3 -15,4 -24,4 -15,0 -27,-5 -37,-15 -10,-10 -15,-22 -15,-36l0 -3c0,-14 5,-26 15,-36 10,-10 22,-15 37,-15l3 0c15,0 27,5 37,15 10,10 15,22 15,36l0 46z"/>
   <path class="fil1 str0" d="M440 244c5,20 -16,42 -48,37 -58,-8 -70,-63 -60,-94 10,-30 33,-47 59,-53 23,-6 44,-5 64,3 74,26 102,109 70,172 -47,93 -185,100 -258,20 -53,-59 -63,-158 -7,-230 35,-45 92,-73 151,-72 90,1 174,47 204,135 11,29 4,122 6,223"/>
   <path class="fil1 str1" d="M440 244c5,20 -16,42 -48,37 -58,-8 -70,-63 -60,-94 10,-30 33,-47 59,-53 23,-6 44,-5 64,3 74,26 102,109 70,172 -47,93 -185,100 -258,20 -53,-59 -63,-158 -7,-230 35,-45 92,-73 151,-72 90,1 174,47 204,135 11,29 4,122 6,223"/>
  </g>
 </g>
</svg>
