<?xml version="1.0" encoding="UTF-8"?>
<!DOCTYPE svg PUBLIC "-//W3C//DTD SVG 1.1//EN" "http://www.w3.org/Graphics/SVG/1.1/DTD/svg11.dtd">
<!-- Creator: CorelDRAW X7 -->
<svg xmlns="http://www.w3.org/2000/svg" xml:space="preserve" width="67.1266mm" height="49.3591mm" version="1.1" style="shape-rendering:geometricPrecision; text-rendering:geometricPrecision; image-rendering:optimizeQuality; fill-rule:evenodd; clip-rule:evenodd"
viewBox="0 0 1905 1401"
 xmlns:xlink="http://www.w3.org/1999/xlink">
 <defs>
  <style type="text/css">
   <![CDATA[
    .str1 {stroke:#FEFEFE;stroke-width:99.3176;stroke-linecap:round}
    .str0 {stroke:#F68E34;stroke-width:99.3176;stroke-linecap:round}
    .fil1 {fill:none}
    .fil0 {fill:#FEFEFE;fill-rule:nonzero}
   ]]>
  </style>
 </defs>
 <g id="Capa_x0020_1">
  <metadata id="CorelCorpID_0Corel-Layer"/>
  <g id="_412062112">
   <path class="fil0" d="M242 1381c0,6 -2,10 -6,14 -4,4 -9,6 -14,6 -6,0 -11,-2 -16,-6 -4,-4 -6,-8 -6,-14l0 -104c0,-21 -7,-40 -22,-55 -15,-15 -33,-22 -53,-22l-8 0c-20,0 -37,7 -52,22 -15,15 -22,34 -22,55l0 8c0,22 7,40 22,55 15,15 32,22 52,22 15,0 28,-1 37,-5 5,-2 10,-3 16,-1 5,2 9,5 12,10 2,5 3,10 0,15 -2,4 -5,8 -10,10 -15,7 -33,10 -55,10 -32,0 -60,-12 -83,-35 -23,-22 -34,-49 -34,-81l0 -8c0,-31 11,-58 34,-81 23,-23 51,-34 83,-34l8 0c33,0 61,11 84,34 22,23 33,50 33,81l0 104zm309 0c0,6 -2,10 -6,14 -4,4 -9,6 -14,6 -6,0 -11,-2 -16,-6 -4,-4 -6,-8 -6,-14l0 -104c0,-21 -7,-40 -22,-55 -15,-15 -33,-22 -53,-22l-8 0c-20,0 -37,7 -52,22 -15,15 -23,34 -23,55l0 104c0,6 -2,10 -6,14 -4,4 -9,6 -15,6 -6,0 -11,-2 -15,-6 -4,-4 -6,-8 -6,-14l0 -104c0,-31 11,-58 34,-81 23,-23 51,-34 83,-34l8 0c33,0 61,11 84,34 22,23 33,50 33,81l0 104zm203 -219c6,0 11,2 15,5 4,4 6,9 6,14 0,5 -2,10 -6,13 -4,4 -9,6 -15,6l-28 0c-20,0 -37,7 -52,22 -15,15 -23,34 -23,55l0 8c0,22 8,40 23,55 15,15 32,22 52,22l28 0c6,0 11,2 15,6 4,4 6,8 6,13 0,6 -2,10 -6,14 -4,4 -9,6 -15,6l-28 0c-32,0 -60,-12 -83,-35 -23,-22 -34,-49 -34,-81l0 -8c0,-31 11,-58 34,-81 23,-23 51,-34 83,-34l28 0zm223 195c6,-2 11,-3 16,-1 6,2 10,5 13,10 2,5 2,10 0,15 -2,4 -6,8 -11,10 -14,7 -33,10 -54,10 -33,0 -61,-12 -84,-35 -22,-22 -33,-49 -33,-81l0 -8c0,-31 11,-58 33,-81 23,-23 51,-34 84,-34l8 0c33,0 60,11 84,34 22,23 33,50 33,81 0,6 -2,10 -6,14 -4,4 -9,5 -15,5l-128 0c-6,0 -11,-1 -15,-5 -4,-4 -6,-8 -6,-14 0,-5 2,-10 6,-13 4,-4 9,-6 15,-6l105 0c-4,-14 -11,-26 -21,-36 -14,-15 -32,-22 -52,-22l-8 0c-20,0 -38,7 -52,22 -15,15 -23,34 -23,55l0 8c0,22 8,40 23,55 14,15 32,22 52,22 15,0 27,-1 36,-5zm277 -195c6,0 11,2 15,5 4,4 6,9 6,14 0,5 -2,10 -6,13 -4,4 -9,6 -15,6l-23 0c-20,0 -34,4 -42,11 -8,8 -13,23 -13,43l0 54c0,31 -8,54 -23,69 -17,16 -41,24 -74,24l-23 0c-5,0 -10,-2 -15,-6 -4,-4 -6,-8 -6,-14 0,-5 2,-9 6,-13 5,-4 10,-6 15,-6l23 0c21,0 35,-3 43,-11 8,-8 12,-22 12,-43l0 -54c0,-30 8,-53 24,-68 17,-16 41,-24 73,-24l23 0zm101 0l75 0c6,0 11,2 15,5 4,4 7,9 7,14 0,5 -3,10 -7,13 -4,4 -9,6 -15,6l-75 0 0 77c0,25 7,46 21,62 14,16 32,24 54,24 6,0 11,1 15,5 4,4 7,8 7,13 0,6 -3,10 -7,14 -4,4 -9,6 -15,6 -36,0 -65,-13 -87,-39 -20,-23 -30,-51 -30,-85l0 -297c0,-5 2,-9 6,-13 4,-4 9,-6 15,-6 6,0 11,2 15,6 4,4 6,8 6,13l0 182zm261 0c6,0 11,2 15,5 4,4 6,9 6,14 0,5 -2,10 -6,13 -4,4 -9,6 -15,6 -20,0 -38,7 -52,22 -15,15 -23,34 -23,55l0 104c0,6 -2,10 -6,14 -4,4 -9,6 -15,6 -6,0 -11,-2 -15,-6 -4,-4 -7,-8 -7,-14l0 -104c0,-31 12,-58 34,-81 23,-23 51,-34 84,-34zm289 219c0,6 -2,10 -6,14 -4,4 -9,6 -15,6 -6,0 -11,-2 -15,-6 -4,-4 -6,-8 -6,-14l0 -104c0,-21 -8,-40 -23,-55 -15,-15 -32,-22 -52,-22l-8 0c-20,0 -38,7 -52,22 -16,15 -23,34 -23,55l0 8c0,22 7,40 23,55 14,15 32,22 52,22 15,0 27,-1 36,-5 5,-2 11,-3 16,-1 6,2 10,5 12,10 3,5 3,10 1,15 -2,4 -6,8 -11,10 -15,7 -33,10 -54,10 -33,0 -61,-12 -84,-35 -22,-22 -34,-49 -34,-81l0 -8c0,-31 12,-58 34,-81 23,-23 51,-34 84,-34l8 0c32,0 60,11 83,34 23,23 34,50 34,81l0 104z"/>
   <path class="fil1 str0" d="M999 541c12,47 -37,96 -110,86 -132,-18 -159,-143 -135,-215 23,-68 75,-105 135,-120 50,-13 98,-10 144,6 168,60 232,249 160,393 -107,209 -421,226 -586,44 -121,-134 -145,-358 -16,-523 80,-101 208,-164 342,-162 205,2 394,107 464,305 24,68 7,278 13,507"/>
   <path class="fil1 str1" d="M999 541c12,47 -37,96 -110,86 -132,-18 -159,-143 -135,-215 23,-68 75,-105 135,-120 50,-13 98,-10 144,6 168,60 232,249 160,393 -107,209 -421,226 -586,44 -121,-134 -145,-358 -16,-523 80,-101 208,-164 342,-162 205,2 394,107 464,305 24,68 7,278 13,507"/>
  </g>
 </g>
</svg>
